<svg width="48.000000" height="48.000000" viewBox="0 0 48 48" fill="none" xmlns="http://www.w3.org/2000/svg" xmlns:xlink="http://www.w3.org/1999/xlink">
	<desc>
			Created with Pixso.
	</desc>
	<defs/>
	<rect id="ri:time-line" rx="-0.500000" width="19.000000" height="19.000000" transform="translate(14.500000 14.500000)" fill="#FFFFFF" fill-opacity="0"/>
	<path id="Vector" d="M24 32.33C19.39 32.33 15.66 28.6 15.66 24C15.66 19.39 19.39 15.66 24 15.66C28.6 15.66 32.33 19.39 32.33 24C32.33 28.6 28.6 32.33 24 32.33ZM24 30.66C25.76 30.66 27.46 29.96 28.71 28.71C29.96 27.46 30.66 25.76 30.66 24C30.66 22.23 29.96 20.53 28.71 19.28C27.46 18.03 25.76 17.33 24 17.33C22.23 17.33 20.53 18.03 19.28 19.28C18.03 20.53 17.33 22.23 17.33 24C17.33 25.76 18.03 27.46 19.28 28.71C20.53 29.96 22.23 30.66 24 30.66ZM24.83 24L28.16 24L28.16 25.66L23.16 25.66L23.16 19.83L24.83 19.83L24.83 24Z" fill="#081212" fill-opacity="1.000000" fill-rule="nonzero"/>
</svg>
