<svg width="20.000000" height="20.000000" viewBox="0 0 20 20" fill="none" xmlns="http://www.w3.org/2000/svg" xmlns:xlink="http://www.w3.org/1999/xlink">
	<desc>
			Created with Pixso.
	</desc>
	<defs/>
	<rect id="ri:time-line" rx="-0.500000" width="19.000000" height="19.000000" transform="translate(0.500000 0.500000)" fill="#FFFFFF" fill-opacity="0"/>
	<path id="Vector" d="M10 18.33C5.39 18.33 1.66 14.6 1.66 10C1.66 5.39 5.39 1.66 10 1.66C14.6 1.66 18.33 5.39 18.33 10C18.33 14.6 14.6 18.33 10 18.33ZM10 16.66C11.76 16.66 13.46 15.96 14.71 14.71C15.96 13.46 16.66 11.76 16.66 10C16.66 8.23 15.96 6.53 14.71 5.28C13.46 4.03 11.76 3.33 10 3.33C8.23 3.33 6.53 4.03 5.28 5.28C4.03 6.53 3.33 8.23 3.33 10C3.33 11.76 4.03 13.46 5.28 14.71C6.53 15.96 8.23 16.66 10 16.66ZM10.83 10L14.16 10L14.16 11.66L9.16 11.66L9.16 5.83L10.83 5.83L10.83 10Z" fill="#081212" fill-opacity="1.000000" fill-rule="nonzero"/>
</svg>
