<svg width="16.000000" height="16.000000" viewBox="0 0 16 16" fill="none" xmlns="http://www.w3.org/2000/svg" xmlns:xlink="http://www.w3.org/1999/xlink">
	<desc>
			Created with Pixso.
	</desc>
	<defs>
		<clipPath id="clip30_125">
			<rect id="ri:leaf-line" rx="-0.500000" width="15.000000" height="15.000000" transform="translate(0.500000 0.500000)" fill="white" fill-opacity="0"/>
		</clipPath>
	</defs>
	<g clip-path="url(#clip30_125)">
		<path id="Vector" d="M14 2L14 3.33C14 9.75 10.41 12.66 6 12.66L3.49 12.66C3.38 13.32 3.32 13.99 3.33 14.66L2 14.66C2 13.75 2.07 12.93 2.23 12.17C2.07 11.31 2 10.14 2 8.66C2 4.98 4.98 2 8.66 2C10 2 11.33 2.66 14 2ZM8.66 3.33C7.25 3.33 5.89 3.89 4.89 4.89C3.89 5.89 3.33 7.25 3.33 8.66C3.33 8.9 3.33 9.14 3.34 9.36C4.17 8.04 5.4 7 7 6.08L7.66 7.24C5.76 8.33 4.49 9.56 3.85 11.33L6 11.33C10.01 11.33 12.58 8.68 12.66 3.59C11.75 3.68 10.89 3.62 9.85 3.46C9.08 3.35 8.93 3.33 8.66 3.33Z" fill="#F8D49E" fill-opacity="1.000000" fill-rule="nonzero"/>
	</g>
</svg>
